<svg width="258" height="319" viewBox="0 0 258 319" fill="none" xmlns="http://www.w3.org/2000/svg">
<path d="M32.0898 200.08C41.5698 207.71 52.8398 214.08 65.3698 219.41C78.5613 224.895 92.1803 229.29 106.09 232.55C116.34 235.05 124.97 237.46 132.16 239.89C138.196 241.808 144.027 244.316 149.57 247.38C154.05 249.99 157.26 252.75 159.38 255.79C161.446 258.751 162.566 262.269 162.59 265.88C162.755 269.628 161.617 273.317 159.37 276.32C156.88 279.412 153.646 281.821 149.97 283.32C145.375 285.249 140.547 286.567 135.61 287.24C129.613 288.108 123.56 288.532 117.5 288.51C108.043 288.533 98.599 287.831 89.2498 286.41C80.2721 285.049 71.3857 283.142 62.6398 280.7C54.1398 278.33 46.0498 275.59 38.5098 272.7C30.9698 269.81 23.9698 266.7 17.6598 263.7L4.87983 318H234.57C241.727 310.028 247.327 300.785 251.08 290.75C255.013 280.058 256.84 268.706 256.46 257.32C256.12 245.15 254.27 234.32 250.64 224.61C247.028 214.903 241.405 206.07 234.14 198.69C226.67 191.03 217.14 184.28 205.28 178.26C193.42 172.24 179.14 166.91 162.28 162.1C151.426 158.94 141.936 155.907 133.81 153C126.871 150.599 120.103 147.732 113.55 144.42C108.15 141.59 104.1 138.78 101.4 135.9C98.6998 133.02 97.3198 130.09 97.2598 127.01C97.1836 124.491 97.7261 121.991 98.8398 119.73C100.228 117.101 102.301 114.897 104.84 113.35C108.487 111.152 112.507 109.643 116.7 108.9C123.018 107.718 129.445 107.218 135.87 107.41C145.553 107.538 155.214 108.391 164.77 109.96C172.713 111.275 180.565 113.089 188.28 115.39C195.22 117.46 201.28 119.68 206.51 121.73C211.74 123.78 216.06 125.66 219.56 127.04L234.44 60.04C229.76 58.04 224.73 56.04 219.22 54.14C213.71 52.24 207.71 50.46 201.12 48.85C194.53 47.24 187.33 45.85 179.41 44.64C171.49 43.43 162.82 42.57 153.32 42.01L152.45 2.39L94.9998 1L95.7898 44.25C81.8188 46.1778 68.1865 50.052 55.2898 55.76C44.1853 60.6665 34.0487 67.5213 25.3598 76C17.4101 83.8499 11.1605 93.2514 6.99983 103.62C2.80278 114.339 0.76378 125.781 0.99983 137.29C0.991797 149.746 3.92107 162.028 9.54983 173.14C15.0882 183.603 22.7682 192.782 32.0898 200.08Z" fill="white" stroke="#39515E" stroke-linecap="round" stroke-linejoin="round"/>
</svg>
